#Comment line ignore any data following # character 
#Hierarchical Translation and Rotation (.htr) file 
[Header]	
#Header keywords are followed by a single value 
FileType HTR		#Single word string
DataType HTRS		#Translation followed by rotation and scale data
FileVersion 1		#integer
NumSegments 84		#integer
NumFrames 2		#integer
DataFrameRate 30		#integer, data frame rate in this file
EulerRotationOrder ZYX
CalibrationUnits mm
RotationUnits Degrees
GlobalAxisofGravity Y
BoneLengthAxis Y
ScaleFactor 1.00
[SegmentNames&Hierarchy]
#CHILD	PARENT
MASTER GLOBAL
root MASTER
chest root
L_mid_tent01 root
R_mid_tent01 root
spine01 root
Bip01_Neck chest
L_humerus chest
R_humerus chest
weapon_bone chest
Bip01_Head Bip01_Neck
eye_left_bone Bip01_Head
eye_right_bone Bip01_Head
L_forearm L_humerus
L_front_hand L_forearm
L_weapon_bone L_forearm
L_front_hand01_01 L_front_hand
L_front_hand02_01 L_front_hand
L_front_hand03_01 L_front_hand
L_front_hand01_02 L_front_hand01_01
L_front_hand02_02 L_front_hand02_01
L_front_hand03_02 L_front_hand03_01
R_forearm R_humerus
R_front_hand R_forearm
R_weapon_bone R_forearm
R_front_hand01_01 R_front_hand
R_front_hand02_01 R_front_hand
R_front_hand03_01 R_front_hand
R_front_hand01_02 R_front_hand01_01
R_front_hand02_02 R_front_hand02_01
R_front_hand03_02 R_front_hand03_01
null_rope01_connect L_mid_tent01
Rope1_Seg01 null_rope01_connect
Rope1_Seg02 Rope1_Seg01
Rope1_Seg03 Rope1_Seg02
Rope1_Seg04 Rope1_Seg03
Rope1_Seg05 Rope1_Seg04
Rope1_Seg06 Rope1_Seg05
Rope1_Seg07 Rope1_Seg06
Rope1_Seg09 Rope1_Seg07
L_mid_hand01 Rope1_Seg09
L_mid_hand02 Rope1_Seg09
L_mid_hand03 Rope1_Seg09
null_rope02_connect R_mid_tent01
Rope2_Seg01 null_rope02_connect
Rope2_Seg02 Rope2_Seg01
Rope2_Seg03 Rope2_Seg02
Rope2_Seg04 Rope2_Seg03
Rope2_Seg05 Rope2_Seg04
Rope2_Seg06 Rope2_Seg05
Rope2_Seg07 Rope2_Seg06
Rope2_Seg09 Rope2_Seg07
R_mid_hand01 Rope2_Seg09
R_mid_hand02 Rope2_Seg09
R_mid_hand03 Rope2_Seg09
spine02 spine01
spine03 spine02
pelvis spine03
null_rope03_connect pelvis
null_rope04_connect pelvis
Rope3_Seg01 null_rope03_connect
Rope3_Seg02 Rope3_Seg01
Rope3_Seg03 Rope3_Seg02
Rope3_Seg04 Rope3_Seg03
Rope3_Seg05 Rope3_Seg04
Rope3_Seg06 Rope3_Seg05
Rope3_Seg07 Rope3_Seg06
Rope3_Seg08 Rope3_Seg07
Rope3_Seg09 Rope3_Seg08
R_rear_hand01 Rope3_Seg09
R_rear_hand02 Rope3_Seg09
R_rear_hand03 Rope3_Seg09
Rope4_Seg01 null_rope04_connect
Rope4_Seg02 Rope4_Seg01
Rope4_Seg03 Rope4_Seg02
Rope4_Seg04 Rope4_Seg03
Rope4_Seg05 Rope4_Seg04
Rope4_Seg06 Rope4_Seg05
Rope4_Seg07 Rope4_Seg06
Rope4_Seg08 Rope4_Seg07
Rope4_Seg09 Rope4_Seg08
L_rear_hand01 Rope4_Seg09
L_rear_hand02 Rope4_Seg09
L_rear_hand03 Rope4_Seg09
[BasePosition]
#SegmentName Tx, Ty, Tz, Rx, Ry, Rz, BoneLength
MASTER 0.000000 0.000000 0.000000 -90.000000 0.000000 0.000000 10.000000 
root 0.000000 0.000000 0.000000 0.000000 0.000000 0.000000 10.000000 
chest 0.000000 0.000000 0.000000 0.000000 0.000000 0.000000 10.000000 
L_mid_tent01 0.000000 0.000000 0.000000 0.000000 0.000000 0.000000 10.000000 
R_mid_tent01 0.000000 0.000000 0.000000 0.000000 0.000000 0.000000 10.000000 
spine01 0.000000 0.000000 0.000000 0.000000 0.000000 0.000000 10.000000 
Bip01_Neck 0.000000 0.000000 0.000000 0.000000 0.000000 0.000000 10.000000 
L_humerus 0.000000 0.000000 0.000000 0.000000 0.000000 0.000000 10.000000 
R_humerus 0.000000 0.000000 0.000000 0.000000 0.000000 0.000000 10.000000 
weapon_bone 0.000000 0.000000 0.000000 0.000000 0.000000 0.000000 10.000000 
Bip01_Head 0.000000 0.000000 0.000000 0.000000 0.000000 0.000000 10.000000 
eye_left_bone 0.000000 0.000000 0.000000 0.000000 0.000000 0.000000 10.000000 
eye_right_bone 0.000000 0.000000 0.000000 0.000000 0.000000 0.000000 10.000000 
L_forearm 0.000000 0.000000 0.000000 0.000000 0.000000 0.000000 10.000000 
L_front_hand 0.000000 0.000000 0.000000 0.000000 0.000000 0.000000 10.000000 
L_weapon_bone 0.000000 0.000000 0.000000 0.000000 0.000000 0.000000 10.000000 
L_front_hand01_01 0.000000 0.000000 0.000000 0.000000 0.000000 0.000000 10.000000 
L_front_hand02_01 0.000000 0.000000 0.000000 0.000000 0.000000 0.000000 10.000000 
L_front_hand03_01 0.000000 0.000000 0.000000 0.000000 0.000000 0.000000 10.000000 
L_front_hand01_02 0.000000 0.000000 0.000000 0.000000 0.000000 0.000000 10.000000 
L_front_hand02_02 0.000000 0.000000 0.000000 0.000000 0.000000 0.000000 10.000000 
L_front_hand03_02 0.000000 0.000000 0.000000 0.000000 0.000000 0.000000 10.000000 
R_forearm 0.000000 0.000000 0.000000 0.000000 0.000000 0.000000 10.000000 
R_front_hand 0.000000 0.000000 0.000000 0.000000 0.000000 0.000000 10.000000 
R_weapon_bone 0.000000 0.000000 0.000000 0.000000 0.000000 0.000000 10.000000 
R_front_hand01_01 0.000000 0.000000 0.000000 0.000000 0.000000 0.000000 10.000000 
R_front_hand02_01 0.000000 0.000000 0.000000 0.000000 0.000000 0.000000 10.000000 
R_front_hand03_01 0.000000 0.000000 0.000000 0.000000 0.000000 0.000000 10.000000 
R_front_hand01_02 0.000000 0.000000 0.000000 0.000000 0.000000 0.000000 10.000000 
R_front_hand02_02 0.000000 0.000000 0.000000 0.000000 0.000000 0.000000 10.000000 
R_front_hand03_02 0.000000 0.000000 0.000000 0.000000 0.000000 0.000000 10.000000 
null_rope01_connect 0.000000 0.000000 0.000000 0.000000 0.000000 0.000000 10.000000 
Rope1_Seg01 0.000000 0.000000 0.000000 0.000000 0.000000 0.000000 10.000000 
Rope1_Seg02 0.000000 0.000000 0.000000 0.000000 0.000000 0.000000 10.000000 
Rope1_Seg03 0.000000 0.000000 0.000000 0.000000 0.000000 0.000000 10.000000 
Rope1_Seg04 0.000000 0.000000 0.000000 0.000000 0.000000 0.000000 10.000000 
Rope1_Seg05 0.000000 0.000000 0.000000 0.000000 0.000000 0.000000 10.000000 
Rope1_Seg06 0.000000 0.000000 0.000000 0.000000 0.000000 0.000000 10.000000 
Rope1_Seg07 0.000000 0.000000 0.000000 0.000000 0.000000 0.000000 10.000000 
Rope1_Seg09 0.000000 0.000000 0.000000 0.000000 0.000000 0.000000 10.000000 
L_mid_hand01 0.000000 0.000000 0.000000 0.000000 0.000000 0.000000 10.000000 
L_mid_hand02 0.000000 0.000000 0.000000 0.000000 0.000000 0.000000 10.000000 
L_mid_hand03 0.000000 0.000000 0.000000 0.000000 0.000000 0.000000 10.000000 
null_rope02_connect 0.000000 0.000000 0.000000 0.000000 0.000000 0.000000 10.000000 
Rope2_Seg01 0.000000 0.000000 0.000000 0.000000 0.000000 0.000000 10.000000 
Rope2_Seg02 0.000000 0.000000 0.000000 0.000000 0.000000 0.000000 10.000000 
Rope2_Seg03 0.000000 0.000000 0.000000 0.000000 0.000000 0.000000 10.000000 
Rope2_Seg04 0.000000 0.000000 0.000000 0.000000 0.000000 0.000000 10.000000 
Rope2_Seg05 0.000000 0.000000 0.000000 0.000000 0.000000 0.000000 10.000000 
Rope2_Seg06 0.000000 0.000000 0.000000 0.000000 0.000000 0.000000 10.000000 
Rope2_Seg07 0.000000 0.000000 0.000000 0.000000 0.000000 0.000000 10.000000 
Rope2_Seg09 0.000000 0.000000 0.000000 0.000000 0.000000 0.000000 10.000000 
R_mid_hand01 0.000000 0.000000 0.000000 0.000000 0.000000 0.000000 10.000000 
R_mid_hand02 0.000000 0.000000 0.000000 0.000000 0.000000 0.000000 10.000000 
R_mid_hand03 0.000000 0.000000 0.000000 0.000000 0.000000 0.000000 10.000000 
spine02 0.000000 0.000000 0.000000 0.000000 0.000000 0.000000 10.000000 
spine03 0.000000 0.000000 0.000000 0.000000 0.000000 0.000000 10.000000 
pelvis 0.000000 0.000000 0.000000 0.000000 0.000000 0.000000 10.000000 
null_rope03_connect 0.000000 0.000000 0.000000 0.000000 0.000000 0.000000 10.000000 
null_rope04_connect 0.000000 0.000000 0.000000 0.000000 0.000000 0.000000 10.000000 
Rope3_Seg01 0.000000 0.000000 0.000000 0.000000 0.000000 0.000000 10.000000 
Rope3_Seg02 0.000000 0.000000 0.000000 0.000000 0.000000 0.000000 10.000000 
Rope3_Seg03 0.000000 0.000000 0.000000 0.000000 0.000000 0.000000 10.000000 
Rope3_Seg04 0.000000 0.000000 0.000000 0.000000 0.000000 0.000000 10.000000 
Rope3_Seg05 0.000000 0.000000 0.000000 0.000000 0.000000 0.000000 10.000000 
Rope3_Seg06 0.000000 0.000000 0.000000 0.000000 0.000000 0.000000 10.000000 
Rope3_Seg07 0.000000 0.000000 0.000000 0.000000 0.000000 0.000000 10.000000 
Rope3_Seg08 0.000000 0.000000 0.000000 0.000000 0.000000 0.000000 10.000000 
Rope3_Seg09 0.000000 0.000000 0.000000 0.000000 0.000000 0.000000 10.000000 
R_rear_hand01 0.000000 0.000000 0.000000 0.000000 0.000000 0.000000 10.000000 
R_rear_hand02 0.000000 0.000000 0.000000 0.000000 0.000000 0.000000 10.000000 
R_rear_hand03 0.000000 0.000000 0.000000 0.000000 0.000000 0.000000 10.000000 
Rope4_Seg01 0.000000 0.000000 0.000000 0.000000 0.000000 0.000000 10.000000 
Rope4_Seg02 0.000000 0.000000 0.000000 0.000000 0.000000 0.000000 10.000000 
Rope4_Seg03 0.000000 0.000000 0.000000 0.000000 0.000000 0.000000 10.000000 
Rope4_Seg04 0.000000 0.000000 0.000000 0.000000 0.000000 0.000000 10.000000 
Rope4_Seg05 0.000000 0.000000 0.000000 0.000000 0.000000 0.000000 10.000000 
Rope4_Seg06 0.000000 0.000000 0.000000 0.000000 0.000000 0.000000 10.000000 
Rope4_Seg07 0.000000 0.000000 0.000000 0.000000 0.000000 0.000000 10.000000 
Rope4_Seg08 0.000000 0.000000 0.000000 0.000000 0.000000 0.000000 10.000000 
Rope4_Seg09 0.000000 0.000000 0.000000 0.000000 0.000000 0.000000 10.000000 
L_rear_hand01 0.000000 0.000000 0.000000 0.000000 0.000000 0.000000 10.000000 
L_rear_hand02 0.000000 0.000000 0.000000 0.000000 0.000000 0.000000 10.000000 
L_rear_hand03 0.000000 0.000000 0.000000 0.000000 0.000000 0.000000 10.000000 
#Beginning of Data. Separated by tabs
#Fr	Tx	Ty	Tz	Rx	Ry	Rz	SF
[MASTER]
43 -0.000751 4626.870117 5076.693848 0.001660 0.001660 0.001660 6868.824219
44 -0.000760 4673.682617 5054.578613 0.001660 0.001660 0.001660 6884.190430
[root]
43 -296.730896 -85.671997 1004.091492 -76.856331 -16.180017 -90.504272 1050.518311
44 -284.689850 -80.236816 1085.522949 -77.493919 -18.617075 -90.435829 1125.098389
[chest]
43 -84.512650 -34.090519 0.000000 13.879024 6.147995 146.168167 91.129311
44 -84.512650 -34.090519 0.000000 16.537991 6.479268 145.621277 91.129311
[L_mid_tent01]
43 27.299162 22.179457 -249.918701 -7.805989 32.658253 53.131939 252.381729
44 27.299164 22.179464 -249.918701 -9.447584 31.427158 49.593266 252.381729
[R_mid_tent01]
43 23.228794 24.509907 226.238495 167.405228 -27.303988 74.270866 228.744751
44 23.228794 24.509907 226.238495 169.369568 -27.449501 70.971619 228.744751
[spine01]
43 -0.361383 -0.195265 0.000000 0.001950 0.001307 22.340317 0.410763
44 -0.361383 -0.195265 0.000000 0.001949 0.001307 22.301912 0.410763
[Bip01_Neck]
43 165.484543 71.581718 0.000119 176.643677 -1.657967 43.431911 180.302734
44 165.484543 71.581718 0.000119 176.643677 -1.657967 43.431911 180.302734
[L_humerus]
43 -13.983130 -135.272980 -120.471481 169.652283 36.051029 -96.061806 181.680161
44 -13.983130 -135.272980 -120.471481 167.824005 45.751621 -98.717056 181.680161
[R_humerus]
43 -13.983309 -135.273102 125.287651 -175.732727 -31.947786 -88.279449 184.909012
44 -13.983309 -135.273102 125.287651 -174.959305 -41.721394 -89.385040 184.909012
[weapon_bone]
43 235.964890 -300.705902 0.000000 0.000000 -89.951546 -128.212341 382.234833
44 235.964890 -300.705902 0.000000 0.000000 -89.951546 -128.212341 382.234833
[Bip01_Head]
43 213.415817 185.794312 10.755541 5.200446 6.151311 -43.834991 283.163422
44 213.428329 185.759277 11.206665 5.200446 6.151311 -43.834991 283.167328
[eye_left_bone]
43 -24.626970 125.451866 -64.772606 0.000000 -90.000000 -99.840431 143.318359
44 -24.626970 125.451866 -64.772606 0.000000 -90.000000 -99.840431 143.318359
[eye_right_bone]
43 -24.626970 125.451866 64.327362 0.000000 -89.965736 80.156380 143.117676
44 -24.626970 125.451866 64.327362 0.000000 -89.965736 80.156380 143.117676
[L_forearm]
43 322.776093 0.000000 -0.000119 0.000300 -0.002328 -104.673805 322.776093
44 322.776093 0.000000 -0.000119 0.000308 -0.002327 -105.073334 322.776093
[L_front_hand]
43 241.149185 -0.042021 -3.300071 -43.905788 -1.835756 -27.421223 241.171753
44 241.149185 -0.042021 -3.300071 -11.491323 -1.833827 -27.422157 241.171753
[L_weapon_bone]
43 156.183838 0.000000 0.000000 0.000014 0.000007 0.000001 156.183838
44 156.183838 0.000000 0.000000 0.000014 0.000007 0.000001 156.183838
[L_front_hand01_01]
43 86.095154 20.947098 -0.655860 -0.359303 -0.482711 74.581482 88.609184
44 86.095154 20.947098 -0.655860 0.405585 -0.442306 -4.620490 88.609184
[L_front_hand02_01]
43 86.935165 -11.437475 24.513514 153.167084 -59.531479 -59.942780 91.046425
44 86.935165 -11.437475 24.513514 116.959450 3.630817 1.495453 91.046425
[L_front_hand03_01]
43 86.637497 -14.123976 -20.424902 -152.780533 57.759907 -61.364872 90.126129
44 86.637497 -14.123976 -20.424902 -118.419884 -4.660555 -0.155069 90.126129
[L_front_hand01_02]
43 71.020905 -0.000179 0.000030 0.001534 0.001777 -8.378850 71.020905
44 71.020905 -0.000179 0.000030 0.001534 0.001777 -8.378850 71.020905
[L_front_hand02_02]
43 71.020927 -0.000119 0.000060 0.001534 0.001777 -8.378850 71.020927
44 71.020927 -0.000119 0.000060 0.001534 0.001777 -8.378850 71.020927
[L_front_hand03_02]
43 71.020905 -0.000060 0.000060 0.001534 0.001777 -8.378850 71.020905
44 71.020905 -0.000060 0.000060 0.001534 0.001777 -8.378850 71.020905
[R_forearm]
43 322.776428 -0.000060 0.000030 0.208201 0.045199 -103.277771 322.776428
44 322.776428 -0.000060 0.000030 0.208418 0.046418 -103.681801 322.776428
[R_front_hand]
43 238.847015 -0.006795 2.210259 -145.392456 -10.646914 -26.312546 238.857239
44 238.847015 -0.006795 2.210259 174.244705 -10.643649 -26.314024 238.857239
[R_weapon_bone]
43 155.664093 0.002503 -0.000030 0.003487 0.001180 -90.988930 155.664078
44 155.664093 0.002503 -0.000030 0.003487 0.001180 -90.988930 155.664078
[R_front_hand01_01]
43 87.624611 14.231146 22.918642 -154.633499 -59.950619 61.746044 91.683487
44 87.624611 14.231146 22.918642 -116.960213 3.496675 -1.324139 91.683487
[R_front_hand02_01]
43 89.356956 14.367283 -19.491137 154.602661 58.302849 63.744389 92.579636
44 89.356956 14.367283 -19.491137 118.419647 -4.257089 0.609827 92.579636
[R_front_hand03_01]
43 87.286232 -22.307278 -0.143439 0.162155 -0.423168 -75.767921 90.091743
44 87.286232 -22.307278 -0.143439 -0.387970 -0.231462 4.232001 90.091743
[R_front_hand01_02]
43 71.020905 0.000060 0.000119 0.001865 0.001425 15.209754 71.020905
44 71.020905 0.000060 0.000119 0.001777 0.001534 8.377220 71.020905
[R_front_hand02_02]
43 71.020844 -0.000030 -0.000119 0.001865 0.001425 15.209754 71.020836
44 71.020844 -0.000030 -0.000119 0.001777 0.001534 8.377220 71.020836
[R_front_hand03_02]
43 71.020905 0.000000 0.000030 0.001865 0.001425 15.209754 71.020905
44 71.020905 0.000000 0.000030 0.001777 0.001534 8.377220 71.020905
[null_rope01_connect]
43 328.732483 0.000000 -0.000238 -128.344727 -67.736488 177.554749 328.732483
44 328.732483 0.000000 -0.000238 -126.309402 -68.020363 -178.772766 328.732483
[Rope1_Seg01]
43 -0.000024 0.000009 0.000036 115.991844 21.695190 152.034225 0.000044
44 -0.000023 0.000008 0.000033 117.795029 30.935791 151.864075 0.000041
[Rope1_Seg02]
43 139.999863 -0.000179 0.000000 0.995486 -0.446977 -5.930062 139.999863
44 139.999863 -0.000179 0.000000 1.339358 -0.359541 -6.386245 139.999863
[Rope1_Seg03]
43 139.999924 0.000060 -0.000060 2.846424 -1.006896 -10.983709 139.999924
44 139.999924 0.000060 -0.000060 3.384215 -0.867069 -10.940862 139.999924
[Rope1_Seg04]
43 139.999924 -0.000060 -0.000119 14.627873 -3.950965 -27.563128 139.999924
44 139.999924 -0.000060 -0.000119 13.962064 -3.176778 -24.342585 139.999924
[Rope1_Seg05]
43 139.999832 0.000119 -0.000060 34.029697 -11.642645 -32.398010 139.999832
44 139.999832 0.000119 -0.000060 27.392071 -9.534904 -25.460386 139.999832
[Rope1_Seg06]
43 139.999954 0.000119 -0.000060 9.769821 -7.071333 -6.354777 139.999954
44 139.999954 0.000119 -0.000060 5.111046 -3.670368 -3.070016 139.999954
[Rope1_Seg07]
43 139.999985 0.000060 0.000000 6.003394 -5.489855 -3.217015 139.999985
44 139.999985 0.000060 0.000000 5.506392 -4.180431 -3.182517 139.999985
[Rope1_Seg09]
43 121.602913 0.000119 -0.000089 -89.793175 -1.359789 0.847147 121.602913
44 121.602913 0.000119 -0.000089 -89.793175 -1.359789 0.847147 121.602913
[L_mid_hand01]
43 103.859421 1.038730 8.195221 130.544373 -67.584534 -38.866943 104.187431
44 103.859421 1.038730 8.195221 130.544373 -67.584534 -38.866943 104.187431
[L_mid_hand02]
43 105.572853 -4.139662 -10.864139 -168.923172 43.409309 -73.498886 106.211075
44 105.572853 -4.139662 -10.864139 -168.923172 43.409309 -73.498886 106.211075
[L_mid_hand03]
43 104.641464 17.579376 -3.913581 -6.012627 17.808174 74.893669 106.179977
44 104.641464 17.579376 -3.913581 -6.012627 17.808174 74.893669 106.179977
[null_rope02_connect]
43 328.732849 0.000179 -0.000119 -133.588913 49.820572 8.909245 328.732849
44 328.732849 0.000179 -0.000119 -131.295486 50.840317 6.149005 328.732849
[Rope2_Seg01]
43 0.000067 0.000036 0.000000 -67.099785 30.463976 9.404487 0.000076
44 0.000068 0.000033 0.000000 -72.421173 36.248020 9.115646 0.000076
[Rope2_Seg02]
43 139.999741 -0.000060 -0.000119 -5.446848 5.365078 3.980254 139.999756
44 139.999741 -0.000060 -0.000119 -4.687584 5.574183 2.905712 139.999756
[Rope2_Seg03]
43 140.000107 0.000030 0.000000 -8.672674 6.412199 6.409181 140.000107
44 140.000107 0.000030 0.000000 -7.104517 6.821013 4.041465 140.000107
[Rope2_Seg04]
43 139.999802 0.000000 -0.000060 -13.532943 6.651592 11.206274 139.999802
44 139.999802 0.000000 -0.000060 -10.578082 8.242956 5.225485 139.999802
[Rope2_Seg05]
43 139.999985 -0.000060 0.000119 -17.386475 12.252358 10.750063 139.999985
44 139.999985 -0.000060 0.000119 -18.775898 6.021592 13.571054 139.999985
[Rope2_Seg06]
43 139.999893 -0.000030 -0.000119 -12.159275 5.915343 7.665401 139.999893
44 139.999893 -0.000030 -0.000119 -11.554904 -0.256433 11.829621 139.999893
[Rope2_Seg07]
43 139.999893 0.000060 -0.000060 -7.119925 1.814065 5.208353 139.999893
44 139.999893 0.000060 -0.000060 -5.651148 -1.127837 7.162974 139.999893
[Rope2_Seg09]
43 121.338966 0.000089 -0.000060 33.793236 -1.359788 -0.847141 121.338966
44 121.338966 0.000089 -0.000060 33.793236 -1.359788 -0.847141 121.338966
[R_mid_hand01]
43 104.680779 11.144459 -10.335981 -16.212059 45.237240 70.462852 105.778534
44 104.680779 11.144459 -10.335981 -16.212063 45.237247 70.462852 105.778534
[R_mid_hand02]
43 104.070427 2.443552 8.231699 49.067387 -67.749794 39.286469 104.424065
44 104.070427 2.443552 8.231699 49.067368 -67.749771 39.286453 104.424065
[R_mid_hand03]
43 106.028137 -11.221827 -5.996406 -177.101105 15.551026 -76.585571 106.788818
44 106.028137 -11.221827 -5.996406 -177.101105 15.551026 -76.585571 106.788818
[spine02]
43 129.756927 0.001550 0.000119 -0.127324 -4.059195 -6.051287 129.756927
44 129.756927 0.001550 0.000119 -0.086071 -4.060086 -6.631625 129.756927
[spine03]
43 78.613930 0.081321 -4.898987 1.603538 3.964428 12.196048 78.766472
44 78.613930 0.081310 -4.898987 1.628220 3.954488 12.555188 78.766472
[pelvis]
43 169.435242 0.051022 0.000000 -0.034604 -0.189842 5.444120 169.435257
44 169.435242 0.051022 0.000000 -0.037046 -0.189532 6.174725 169.435257
[null_rope03_connect]
43 -1.257226 -2.466202 137.391083 13.591691 -76.366066 58.738064 137.418976
44 -1.257226 -2.466202 137.391083 16.186325 -76.964119 58.088295 137.418976
[null_rope04_connect]
43 -1.259640 -2.480268 -137.844437 13.591691 -76.366066 58.738064 137.872513
44 -1.259640 -2.480268 -137.844437 16.186325 -76.964119 58.088295 137.872513
[Rope3_Seg01]
43 0.000000 0.000000 0.000000 -148.776428 -24.435547 -33.444939 0.000000
44 0.000000 0.000000 0.000000 -144.039948 -21.120367 -37.236416 0.000000
[Rope3_Seg02]
43 139.999924 -0.000119 0.000060 15.259555 -13.091410 16.822906 139.999924
44 139.999924 -0.000119 0.000060 11.684211 -10.267586 16.213678 139.999924
[Rope3_Seg03]
43 139.999924 -0.000119 0.000119 5.687781 -4.467131 10.344953 139.999924
44 139.999924 -0.000119 0.000119 4.338508 -3.830873 8.640036 139.999924
[Rope3_Seg04]
43 139.999924 0.000119 0.000000 3.327625 -2.403544 9.454504 139.999924
44 139.999924 0.000119 0.000000 2.786069 -1.996115 9.071823 139.999924
[Rope3_Seg05]
43 139.999924 -0.000238 0.000060 2.882592 -1.975142 14.468577 139.999924
44 139.999924 -0.000238 0.000060 2.344423 -1.082214 14.163980 139.999924
[Rope3_Seg06]
43 139.999893 -0.000119 -0.000060 1.261082 -0.981459 12.012311 139.999893
44 139.999893 -0.000119 -0.000060 0.952570 -0.393153 11.000109 139.999893
[Rope3_Seg07]
43 139.999771 0.000060 -0.000119 0.428997 -0.502897 7.656583 139.999771
44 139.999771 0.000060 -0.000119 0.330101 -0.217035 7.102683 139.999771
[Rope3_Seg08]
43 139.999985 -0.000060 0.000000 0.242592 -0.275776 4.784969 139.999985
44 139.999985 -0.000060 0.000000 0.210173 -0.110487 4.473501 139.999985
[Rope3_Seg09]
43 90.185997 -0.000179 -0.000060 89.793228 -1.359877 -0.847183 90.185997
44 90.185997 -0.000179 -0.000060 89.793228 -1.359877 -0.847183 90.185997
[R_rear_hand01]
43 103.366196 -6.073594 -10.757982 -177.714203 24.565960 -73.910950 104.101845
44 103.366196 -6.073594 -10.757982 -177.714203 24.565960 -73.910950 104.101845
[R_rear_hand02]
43 100.509819 12.039542 -7.992327 -12.874829 36.868488 72.167213 101.543350
44 100.509819 12.039542 -7.992327 -12.874829 36.868488 72.167213 101.543350
[R_rear_hand03]
43 101.539970 5.215704 5.435467 71.484634 -71.816666 21.513840 101.819031
44 101.539970 5.215704 5.435467 71.484581 -71.816628 21.513813 101.819031
[Rope4_Seg01]
43 0.000010 0.000009 -0.000036 45.921558 -0.676820 -138.037811 0.000038
44 0.000010 0.000008 -0.000033 46.093712 -0.151449 -135.647919 0.000036
[Rope4_Seg02]
43 139.999985 0.000060 0.000119 -5.495953 6.543401 -6.142605 139.999985
44 139.999985 0.000060 0.000119 -4.306712 6.300769 -5.025016 139.999985
[Rope4_Seg03]
43 139.999924 0.000000 -0.000238 -6.566843 8.103421 -8.719971 139.999924
44 139.999924 0.000000 -0.000238 -5.292341 7.523292 -7.655012 139.999924
[Rope4_Seg04]
43 139.999985 0.000000 0.000119 -7.835259 6.034610 -13.516001 139.999985
44 139.999985 0.000000 0.000119 -6.740794 6.845863 -12.549511 139.999985
[Rope4_Seg05]
43 139.999802 -0.000060 -0.000119 3.189510 30.788334 12.672740 139.999802
44 139.999802 -0.000060 -0.000119 4.664889 31.693041 16.128618 139.999802
[Rope4_Seg06]
43 139.999924 0.000000 0.000060 2.619230 26.141968 16.095633 139.999924
44 139.999924 0.000000 0.000060 1.071737 20.498646 12.912477 139.999924
[Rope4_Seg07]
43 139.999802 0.000000 0.000000 0.477117 9.328319 4.304070 139.999802
44 139.999802 0.000000 0.000000 0.137005 7.717578 3.843323 139.999802
[Rope4_Seg08]
43 139.999924 0.000000 0.000119 -1.379397 4.469484 2.031816 139.999924
44 139.999924 0.000000 0.000119 -1.567405 3.842560 1.913903 139.999924
[Rope4_Seg09]
43 90.185791 0.000060 0.000060 -135.617828 2.228885 0.850567 90.185791
44 90.185791 0.000060 0.000060 -135.617828 2.228885 0.850567 90.185791
[L_rear_hand01]
43 101.696655 -8.392275 -7.654577 -12.874829 -36.868488 107.832764 102.329041
44 101.696655 -8.392275 -7.654577 -12.874829 -36.868488 107.832764 102.329041
[L_rear_hand02]
43 102.726799 -1.568258 5.773216 71.484581 71.816628 158.486160 102.900848
44 102.726799 -1.568258 5.773216 71.484581 71.816628 158.486160 102.900848
[L_rear_hand03]
43 104.552910 9.721220 -10.420293 -177.714203 -24.565960 -106.089035 105.519653
44 104.552910 9.721220 -10.420293 -177.714203 -24.565960 -106.089035 105.519653
